<?xml version="1.0" ?><svg xmlns="http://www.w3.org/2000/svg" xmlns:xlink="http://www.w3.org/1999/xlink" version="1.1" viewBox="0 0 512 512" style="enable-background:new 0 0 512 512;" xml:space="preserve"><g id="_x31_8_x2C__Wheat_Grain_x2C__sack_x2C__garming_and_gardening_x2C__food_x2C__wheat_sack"><g><path style="fill:#FFBE8D;" d="M256.162,122.401l-155.195,18.6c0.047,3.113,0.023,72.878,0.03,230l154.919,19l155.081-19    c0.121-227.216-0.275-215.768,0.36-230L256.162,122.401z"/><circle style="fill:#FFBE8D;" cx="255.997" cy="256.001" r="115"/><path style="fill:#FFBE8D;" d="M255.997,179.401c-13.86,6.91-23.22,20.37-21.04,35.18l19.95,26.377l1.225,7.214l1.155-7.201    l19.53-24.85v-0.01C279.177,199.091,270.147,186.091,255.997,179.401z"/><path style="fill:#FFBE8D;" d="M255.997,249.941c-26.128,18.785-59.845,2.146-61-29.92c11.69-8.49,26.86-10.65,39.93-4.28    c0.01,0,0.02,0.01,0.03,0.01C248.148,222.198,255.997,235.988,255.997,249.941z"/><path style="fill:#FFBE8D;" d="M317.167,220.181c-1.158,32.143-35.099,48.731-61.17,29.8c0.764-16.051,9.214-28.034,20.82-33.86    v-0.01C290.039,209.5,305.327,211.59,317.167,220.181z"/><path style="fill:#FFBE8D;" d="M317.327,264.671c-1.162,32.274-35.144,48.673-61.17,29.81    C257.336,262.355,291.197,245.691,317.327,264.671z"/><path style="fill:#FFBE8D;" d="M255.997,293.151c-26.07,18.933-60.011,2.375-61.17-29.81    C220.87,244.468,254.835,260.882,255.997,293.151z"/><path style="fill:#FFBE8D;" d="M440.997,501.001c-68.199-19.101-66.824-20-74.2-20c-234.982,0.403-222.21-1.014-229.84,1.15    l-65.96,18.85c3.12-9.36,30-56.79,30-128.94v-1.06c17.221,0,292.779,0,310,0v1.06    C410.997,444.461,437.897,491.691,440.997,501.001z"/><path style="fill:#FFBE8D;" d="M440.997,11.001c-17.672,41.235-27.709,85.323-29.64,130c-17.234,0-293.118,0-310.39,0    c-0.94-73.96-27.77-123.28-29.97-130c68.199,19.101,66.824,20,74.2,20h221.6C374.177,31.001,372.873,30.081,440.997,11.001z"/><g id="XMLID_66_"><path style="fill:#4269A7;" d="M420.997,372.06V157.159c0-49.173,9.821-97.022,29.191-142.218     c3.313-7.73-3.853-15.864-11.938-13.555l-65.959,18.845c-5.094,1.456,6.778,0.501-227.092,0.77     c-4.944,0-1.615,0.069-71.455-19.615c-7.698-2.203-14.737,5.12-12.252,12.722c2.533,7.757,29.505,56.922,29.505,130.879V372.06     c0,70.191-25.952,115.166-29.487,125.781c-2.538,7.618,4.515,14.98,12.234,12.776c69.734-19.654,66.531-19.615,71.455-19.615     c233.906,0.269,221.995-0.686,227.091,0.77l65.96,18.846c7.721,2.205,14.773-5.159,12.234-12.776     C446.96,487.254,420.997,442.513,420.997,372.06z M323.747,361.001c76.309-49.408,76.272-160.616,0-210h77.317     c-0.137,8.648-0.031-9.041-0.067,210H323.747z M110.997,151.001h77.25c-76.308,49.407-76.273,160.616,0,210h-77.25V151.001z      M150.997,256.001c0-57.897,47.103-105,105-105c57.897,0,105,47.103,105,105s-47.103,105-105,105     C198.1,361.001,150.997,313.898,150.997,256.001z M134.211,39.462c10.141,2.898-0.206,1.013,232.585,1.539     c9.45,0,11.594-2.172,57.402-14.8c-12.406,33.816-19.868,68.911-22.307,104.8H110.688C108.641,83.96,96.711,47.407,88.351,26.36     L134.211,39.462z M366.796,471.001H145.199c-9.482,0-11.445,2.13-56.759,14.616c8.591-21.007,20.99-57.51,22.418-104.616h290.278     c1.422,47.202,13.8,83.635,22.394,104.609C379.884,473.584,376.393,471.001,366.796,471.001z"/><path style="fill:#4269A7;" d="M323.202,256.577c-2.577-1.87-5.277-3.472-8.06-4.814c7.147-8.294,11.58-19.175,12.015-31.226     c0.12-3.328-1.424-6.498-4.119-8.454c-10.947-7.945-24.091-11.159-36.555-9.355c-2.528-13.925-11.713-25.513-26.212-32.367     c-2.771-1.31-5.992-1.276-8.737,0.093c-13.696,6.832-22.922,18.201-25.87,30.963c-12.464-1.801-25.602,1.397-36.543,9.344     c-2.693,1.957-4.237,5.125-4.117,8.451c0.428,11.879,4.789,22.834,12.011,31.227c-2.782,1.343-5.482,2.944-8.058,4.814     c-2.695,1.956-4.24,5.125-4.12,8.454c1.161,32.154,30.207,54.461,61.161,45.363v21.932c0,5.523,4.477,10,10,10     c5.522,0,10-4.477,10-10v-20.658c31.051,9.235,60.162-13.132,61.324-45.313C327.441,261.703,325.898,258.533,323.202,256.577z      M306.494,225.376c-3.942,18.724-22.663,27.836-39.826,19.408C270.609,226.057,289.33,216.95,306.494,225.376z M256.107,190.918     c5.267,3.522,10.861,9.546,11.077,19.274c-4.04,2.741-7.581,6.113-10.577,9.942c-3.265-4.488-7.268-8.368-11.884-11.448     C245.318,201.971,249.434,195.538,256.107,190.918z M245.491,243.454c-17.184,8.436-35.888-0.68-39.825-19.404     C222.85,215.607,241.514,224.699,245.491,243.454z M205.501,268.545c17.175-8.433,35.887,0.695,39.826,19.407     C228.152,296.385,209.441,287.258,205.501,268.545z M266.831,289.277c3.943-18.727,22.663-27.834,39.826-19.407     C302.717,288.594,283.993,297.706,266.831,289.277z"/></g></g></g><g id="Layer_1"/></svg>