<svg width="100" height="100" viewBox="0 0 100 100" fill="none" xmlns="http://www.w3.org/2000/svg">
<path d="M100 50C100 22.45 77.55 0 50 0C22.45 0 0 22.45 0 50C0 64.5 6.25 77.55 16.15 86.7C16.15 86.75 16.15 86.75 16.1 86.8C16.6 87.3 17.2 87.7 17.7 88.15C18 88.4 18.25 88.65 18.55 88.85C19.45 89.6 20.45 90.3 21.4 91C21.75 91.25 22.05 91.45 22.4 91.7C23.35 92.35 24.35 92.95 25.4 93.5C25.75 93.7 26.15 93.95 26.5 94.15C27.5 94.7 28.55 95.2 29.65 95.65C30.05 95.85 30.45 96.05 30.85 96.2C31.95 96.65 33.05 97.05 34.15 97.4C34.55 97.55 34.95 97.7 35.35 97.8C36.55 98.15 37.75 98.45 38.95 98.75C39.3 98.85 39.65 98.95 40.05 99C41.45 99.3 42.85 99.5 44.3 99.65C44.5 99.65 44.7 99.7 44.9 99.75C46.6 99.9 48.3 100 50 100C51.7 100 53.4 99.9 55.05 99.75C55.25 99.75 55.45 99.7 55.65 99.65C57.1 99.5 58.5 99.3 59.9 99C60.25 98.95 60.6 98.8 61 98.75C62.2 98.45 63.45 98.2 64.6 97.8C65 97.65 65.4 97.5 65.8 97.4C66.9 97 68.05 96.65 69.1 96.2C69.5 96.05 69.9 95.85 70.3 95.65C71.35 95.2 72.4 94.7 73.45 94.15C73.85 93.95 74.2 93.7 74.55 93.5C75.55 92.9 76.55 92.35 77.55 91.7C77.9 91.5 78.2 91.25 78.55 91C79.55 90.3 80.5 89.6 81.4 88.85C81.7 88.6 81.95 88.35 82.25 88.15C82.8 87.7 83.35 87.25 83.85 86.8C83.85 86.75 83.85 86.75 83.8 86.7C93.75 77.55 100 64.5 100 50ZM74.7 74.85C61.15 65.75 38.95 65.75 25.3 74.85C23.1 76.3 21.3 78 19.8 79.85C12.2 72.15 7.5 61.6 7.5 50C7.5 26.55 26.55 7.5 50 7.5C73.45 7.5 92.5 26.55 92.5 50C92.5 61.6 87.8 72.15 80.2 79.85C78.75 78 76.9 76.3 74.7 74.85Z" fill="#002D4E"/>
<path d="M50 24.6487C39.65 24.6487 31.25 33.0487 31.25 43.3988C31.25 53.5488 39.2 61.7988 49.75 62.0988H50.2H50.55H50.65C60.75 61.7488 68.7 53.5488 68.75 43.3988C68.75 33.0487 60.35 24.6487 50 24.6487Z" fill="#002D4E"/>
</svg>
